<svg xmlns="http://www.w3.org/2000/svg" width="121" height="38.354" viewBox="0 0 121 38.354">
  <g id="Group_1842" data-name="Group 1842" transform="translate(4247 -6053)">
    <g id="Group_1838" data-name="Group 1838" transform="translate(6 -5)">
      <g id="Group_1832" data-name="Group 1832" transform="translate(-4253 6058)">
        <g id="Group_1815" data-name="Group 1815" transform="translate(0 0)">
          <g id="Group_1807" data-name="Group 1807" transform="translate(1.076 1.855)">
            <path id="Path_3072" data-name="Path 3072" d="M-28.233-141.984q-3.691,5.639-6.638,10.022t-5.2,7.689q-2.256,3.306-3.845,5.741t-2.589,4.255a21.127,21.127,0,0,0-1.461,3.153,7.566,7.566,0,0,0-.461,2.461,2.952,2.952,0,0,0,.564,1.794,1.908,1.908,0,0,0,1.64.769,5.258,5.258,0,0,0,2.743-.82,12.313,12.313,0,0,0,2.589-2.127,21.579,21.579,0,0,0,2.281-2.9,28.648,28.648,0,0,0,1.82-3.153,21.7,21.7,0,0,0,1.2-2.922,7.5,7.5,0,0,0,.436-2.127,1.1,1.1,0,0,0-.077-.436q-.077-.179-.179-.41a3.052,3.052,0,0,1-.179-.59,4.861,4.861,0,0,1-.077-.974,2.851,2.851,0,0,1,.641-1.794,2.017,2.017,0,0,1,1.666-.82,2.494,2.494,0,0,1,1.435.384,2.809,2.809,0,0,1,.9,1,4.4,4.4,0,0,1,.461,1.358,8.588,8.588,0,0,1,.128,1.461,11,11,0,0,1-.308,2.461,6.478,6.478,0,0,0,1.692,1.153,4.981,4.981,0,0,0,2.256.538,5.881,5.881,0,0,0,3.1-.82,8.617,8.617,0,0,0,2.384-2.153l.359.308a7.856,7.856,0,0,1-2.589,2.384,6.452,6.452,0,0,1-3.255.9,5.259,5.259,0,0,1-2.23-.461A8.613,8.613,0,0,1-30.9-117.84a17.079,17.079,0,0,1-2.307,4.921,17.468,17.468,0,0,1-3.614,3.9,17.088,17.088,0,0,1-4.588,2.589,14.681,14.681,0,0,1-5.229.948,5.637,5.637,0,0,1-4.28-1.487,5.572,5.572,0,0,1-1.41-4,6.49,6.49,0,0,1,.282-1.794,13.9,13.9,0,0,1,1.025-2.409q.743-1.435,2.025-3.563t3.306-5.254q2.025-3.127,4.9-7.484t6.767-10.252Z" transform="translate(52.326 141.984)" fill="#0b5f8d"/>
          </g>
          <g id="Group_1809" data-name="Group 1809" transform="translate(2.322 18.669)">
            <path id="Path_3072-2" data-name="Path 3072" d="M-46.572-83.6a2.952,2.952,0,0,0,.564,1.794,1.908,1.908,0,0,0,1.64.769,5.258,5.258,0,0,0,2.743-.82,12.312,12.312,0,0,0,2.589-2.127,21.583,21.583,0,0,0,2.281-2.9,28.652,28.652,0,0,0,1.82-3.153,21.7,21.7,0,0,0,1.2-2.922,7.5,7.5,0,0,0,.436-2.127,1.1,1.1,0,0,0-.077-.436q-.077-.179-.179-.41a3.052,3.052,0,0,1-.179-.59,4.862,4.862,0,0,1-.077-.974,2.851,2.851,0,0,1,.641-1.794,2.017,2.017,0,0,1,1.666-.82,2.494,2.494,0,0,1,1.435.384,2.81,2.81,0,0,1,.9,1,4.4,4.4,0,0,1,.461,1.358,8.588,8.588,0,0,1,.128,1.461,11,11,0,0,1-.308,2.461A6.477,6.477,0,0,0-27.2-92.291a4.98,4.98,0,0,0,2.256.538,5.881,5.881,0,0,0,3.1-.82,8.618,8.618,0,0,0,2.384-2.153l.359.308a7.856,7.856,0,0,1-2.589,2.384,6.452,6.452,0,0,1-3.255.9,5.259,5.259,0,0,1-2.23-.461,8.61,8.61,0,0,1-1.871-1.179,17.079,17.079,0,0,1-2.307,4.921,17.468,17.468,0,0,1-3.614,3.9,17.089,17.089,0,0,1-4.588,2.589,14.681,14.681,0,0,1-5.229.948,5.637,5.637,0,0,1-4.28-1.487C-50-82.9-46.572-84.354-46.572-83.6Z" transform="translate(49.222 100.109)" fill="#f54c40"/>
          </g>
          <rect id="Rectangle_493" data-name="Rectangle 493" width="35.899" height="5.014" rx="2.507" transform="translate(0.037 0.32)" fill="#0b5f8d"/>
          <path id="Path_3073" data-name="Path 3073" d="M3.061,0H32.874a3.053,3.053,0,0,1,3.061,3.044c0,1.681-1.2.036-4.492,0s-25.849.011-28.144,0S0,4.726,0,3.044A3.053,3.053,0,0,1,3.061,0Z" transform="translate(0 0)" fill="#f54c40"/>
        </g>
      </g>
    </g>
    <text id="tBook" transform="translate(-4208 6082)" fill="#303535" font-size="28" font-family="Okra-SemiBold, Okra" font-weight="600"><tspan x="0" y="0">tBook</tspan></text>
  </g>
</svg>
